PathFileType	3	(X/Y/Z)	F:\ViconData\AntennenMessung\Messung1\Session1\ID04.trc
DataRate	CameraRate	NumFrames	NumMarkers	Units	OrigDataRate	OrigDataStartFrame	OrigNumFrames
120.0	120.0	5	70	mm	120.0	722	1154	
Frame#	Time	Ashort			Along			Atop			A4			Bshort			Blong			Btop			B4			Cshort			Clong			Ctop			C4			Dshort			Dlong			Dtop			D4			Eshort			Elong			Etop			E4			Fshort			Flong			Ftop			F4			Gshort			Glong			Gtop			G4			Hshort			Hlong			Htop			H4			I1			I2			I3			I4			I5			WandAshort			WandAlong			WandAtop			WandA4			WandA15			WandBshort			WandB4			WandB5			WandBtop			WandBlong			WandCshort			WandClong			WandCtop			WandC4			WandC5			Acenter			Aantenna			Bcenter			Bantenna			Ccenter			Cantenna			Dcenter			Dantenna			Ecenter			Eantenna			Fcenter			Fantenna			Gcenter			Gantenna			Hcenter			Hantenna			Icenter			Iantenna			
		X1	Y1	Z1	X2	Y2	Z2	X3	Y3	Z3	X4	Y4	Z4	X5	Y5	Z5	X6	Y6	Z6	X7	Y7	Z7	X8	Y8	Z8	X9	Y9	Z9	X10	Y10	Z10	X11	Y11	Z11	X12	Y12	Z12	X13	Y13	Z13	X14	Y14	Z14	X15	Y15	Z15	X16	Y16	Z16	X17	Y17	Z17	X18	Y18	Z18	X19	Y19	Z19	X20	Y20	Z20	X21	Y21	Z21	X22	Y22	Z22	X23	Y23	Z23	X24	Y24	Z24	X25	Y25	Z25	X26	Y26	Z26	X27	Y27	Z27	X28	Y28	Z28	X29	Y29	Z29	X30	Y30	Z30	X31	Y31	Z31	X32	Y32	Z32	X33	Y33	Z33	X34	Y34	Z34	X35	Y35	Z35	X36	Y36	Z36	X37	Y37	Z37	X38	Y38	Z38	X39	Y39	Z39	X40	Y40	Z40	X41	Y41	Z41	X42	Y42	Z42	X43	Y43	Z43	X44	Y44	Z44	X45	Y45	Z45	X46	Y46	Z46	X47	Y47	Z47	X48	Y48	Z48	X49	Y49	Z49	X50	Y50	Z50	X51	Y51	Z51	X52	Y52	Z52	X53	Y53	Z53	X54	Y54	Z54	X55	Y55	Z55	X56	Y56	Z56	X57	Y57	Z57	X58	Y58	Z58	X59	Y59	Z59	X60	Y60	Z60	X61	Y61	Z61	X62	Y62	Z62	X63	Y63	Z63	X64	Y64	Z64	X65	Y65	Z65	X66	Y66	Z66	X67	Y67	Z67	X68	Y68	Z68	X69	Y69	Z69	X70	Y70	Z70	
722	6.0083333	-1038.2986	214.52345	-1644.2495	-1109.2955	203.40187	-1599.5321	-1063.6213	172.6859	-1625.5925	-1054.0229	262.05844	-1635.0059	-1352.9803	235.49532	1003.946	-1281.3671	227.15729	1052.3533	-1323.2391	194.06569	1020.9083	-1284.7474	287.88446	1052.8114	813.80267	187.66063	1209.5111	892.27625	178.28569	1179.2891	844.59869	145.01976	1198.3147	860.51361	292.59991	1167.1598	1115.7749	209.70996	-1401.7183	1056.1921	193.96097	-1460.1451	1095.0052	162.38234	-1423.984	1069.8743	238.61583	-1425.9553	-1204.516	1686.0063	-1563.1992	-1129.1807	1688.3722	-1606.6157	-1173.1304	1724.3987	-1581.9872	-1133.5551	1581.0767	-1603.5724	-1239.7123	1699.2401	1119.28	-1309.4979	1698.8752	1071.6741	-1270.3165	1736.1044	1096.6329	-1244.6472	1594.1487	1106.4221	988.84125	1664.2844	1162.251	957.35742	1700.4772	1183.6439	922.49268	1662.0829	1214.8335	939.78424	1659.3184	1159.9337	999.19263	1668.5707	-1579.5436	1058.8781	1670.1588	-1518.6481	1025.0511	1708.0051	-1551.1505	1059.295	1672.1913	-1585.6122	-287.30115	140.1181	480.07632	-371.43869	147.10124	481.2821	-327.58099	105.88564	481.0708	-324.00696	145.05267	512.42999	-324.75635	141.41626	434.29437																																														-1068.9952	209.71484	-1624.9153	-1074.5957	248.30417	-1624.2095	-1321.6769	231.85062	1025.1056	-1320.0758	270.57953	1029.4078	848.38245	183.5295	1196.1936	852.19031	222.28442	1194.0591	1088.6448	202.53889	-1428.3219	1082.578	240.84128	-1432.4595	-1171.9465	1687.0291	-1581.9691	-1170.7117	1648.0486	-1581.9506	-1271.0082	1699.0764	1097.9307	-1271.7361	1660.1072	1099.2966	953.0741	1705.401	1186.5544	972.92065	1733.5132	1168.2019	1026.5607	1669.2988	-1551.6206	1028.0804	1630.3313	-1552.0939	-324.49023	143.20468	480.60925	-321.27155	182.06865	480.12863
723	6.0166667	-1038.3699	214.70024	-1644.1989	-1109.3187	203.4243	-1599.5479	-1063.6359	172.66318	-1625.603	-1054.0287	262.02966	-1634.989	-1353.0685	235.04355	1003.9462	-1281.338	227.25026	1052.2605	-1323.1752	194.13472	1020.8293	-1284.7509	287.85416	1052.817	813.83923	187.72484	1209.6172	892.34985	178.30554	1179.264	844.25366	145.51497	1198.1313	860.51331	292.64618	1167.2312	1115.7782	209.70049	-1401.7144	1056.1854	193.96017	-1460.1398	1095.0393	162.45807	-1424.0125	1069.8712	238.575	-1425.9364	-1204.4584	1685.9565	-1563.3346	-1129.1213	1688.3076	-1606.3214	-1173.1234	1724.391	-1581.986	-1133.5457	1581.0304	-1603.5073	-1239.6924	1699.2059	1119.2584	-1309.5746	1699.0494	1071.744	-1270.3481	1736.152	1096.6552	-1244.5581	1594.55	1106.5834	988.8056	1664.2638	1162.2766	957.32983	1700.4673	1183.5912	922.09161	1662.1914	1214.8265	939.75043	1659.3116	1159.8761	999.20264	1668.5441	-1579.5134	1058.868	1670.1581	-1518.6376	1025.0464	1708.0076	-1551.1561	1059.2836	1672.1808	-1585.6208	-287.23099	140.21323	479.88507	-371.50638	147.21712	481.246	-327.65836	105.7866	481.17062	-324.03229	145.08307	512.28003	-324.75644	141.41101	434.31564																																														-1069.0804	209.81938	-1624.8713	-1074.734	248.39995	-1624.1117	-1321.8774	231.65477	1024.955	-1320.5376	270.39822	1029.215	848.13806	183.60985	1196.3568	852.09003	222.36707	1194.5515	1088.6589	202.53745	-1428.3021	1082.5616	240.83908	-1432.4017	-1171.9102	1686.9723	-1581.9064	-1170.6465	1647.9928	-1581.8234	-1271.1097	1699.1355	1097.897	-1271.9115	1660.1656	1099.2045	952.88434	1705.5803	1186.6016	972.82373	1733.6763	1168.3248	1026.5538	1669.2838	-1551.6072	1028.071	1630.316	-1552.0609	-324.55048	143.31473	480.4877	-321.33231	182.17529	479.78055
724	6.025	-1038.3264	214.50076	-1644.239	-1109.316	203.42395	-1599.5643	-1063.6923	172.61661	-1625.5645	-1054.0388	262.04355	-1635.0137	-1353.0983	235.2576	1003.9523	-1281.3339	227.17195	1052.2532	-1323.1901	194.09264	1020.835	-1284.72	287.84219	1052.8323	813.82367	187.68176	1209.5107	892.37366	178.44897	1179.2117	844.24719	145.4863	1198.198	860.5083	292.55478	1167.1869	1115.7723	209.70038	-1401.6985	1056.1632	194.00089	-1460.1948	1095.0088	162.4552	-1424.0229	1069.8397	238.57976	-1425.9751	-1204.4495	1685.9465	-1563.3499	-1129.1169	1688.1986	-1606.0607	-1173.1218	1724.3805	-1581.9783	-1133.5581	1581.0444	-1603.5166	-1239.6979	1699.2006	1119.2603	-1309.5688	1699.0096	1071.729	-1270.365	1736.1783	1096.6686	-1244.7137	1593.9978	1106.4187	988.79816	1664.2064	1162.2747	957.34521	1700.4369	1183.6832	922.63013	1662.0417	1214.8386	939.79413	1659.3431	1159.8142	999.21057	1668.5452	-1579.5156	1058.8732	1670.1599	-1518.6488	1025.0492	1708.0114	-1551.1669	1059.275	1672.1827	-1585.6359	-287.23364	140.22807	479.88324	-371.46143	147.19904	481.2598	-327.64355	105.83071	481.19672	-324.01123	145.08936	512.41223	-324.67285	141.37325	434.2688																																														-1069.0598	209.70526	-1624.8979	-1074.6451	248.29703	-1624.2045	-1321.7756	231.7285	1025.0338	-1320.3201	270.46103	1029.355	848.01147	183.66331	1196.3234	851.83374	222.42885	1194.4199	1088.6541	202.55814	-1428.3103	1082.5841	240.86458	-1432.4058	-1171.9023	1686.9194	-1581.8027	-1170.6335	1647.9406	-1581.62	-1271.1002	1699.1146	1097.8981	-1271.8732	1660.1437	1099.1909	953.15399	1705.2645	1186.536	972.99182	1733.3557	1168.1417	1026.5569	1669.2852	-1551.6173	1028.074	1630.3174	-1552.0706	-324.55255	143.3167	480.49313	-321.34821	182.17799	479.76376
725	6.0333333	-1038.2893	214.47571	-1644.2069	-1109.3105	203.43086	-1599.5343	-1063.6256	172.64716	-1625.5726	-1054.1525	262.13626	-1635.0209	-1353.0698	235.27606	1003.939	-1281.4344	227.32684	1052.2809	-1323.1887	194.11705	1020.8428	-1284.6104	287.89795	1052.7681	813.83643	187.67278	1209.5159	892.64301	178.10864	1179.5421	844.33368	145.43716	1198.1973	860.45679	292.72211	1166.9142	1115.783	209.72935	-1401.7183	1056.2122	193.98042	-1460.1262	1095.0023	162.22829	-1423.9304	1069.8611	238.60889	-1425.9465	-1204.4407	1685.9502	-1563.3536	-1129.1196	1688.2236	-1606.0836	-1173.1118	1724.3807	-1581.9902	-1133.526	1581.0393	-1603.5222	-1239.7041	1699.2216	1119.2723	-1309.5591	1698.9971	1071.7286	-1270.3601	1736.175	1096.6735	-1244.6432	1594.1407	1106.4113	988.82764	1664.2358	1162.2546	956.9754	1700.5865	1183.6278	922.00946	1662.2273	1214.8009	939.7879	1659.324	1159.8698	999.19263	1668.5702	-1579.5436	1058.8845	1670.1666	-1518.6415	1025.0508	1708.0049	-1551.1594	1059.2864	1672.1862	-1585.6327	-287.25043	140.16455	479.96072	-371.51447	147.23833	481.23062	-327.60559	105.78772	481.19278	-324.00317	145.0605	512.38635	-324.74323	141.39597	434.30222																																														-1068.9705	209.70432	-1624.9082	-1074.5372	248.29878	-1624.2162	-1321.8268	231.8091	1025.0227	-1320.4272	270.54651	1029.3187	848.27527	183.49321	1196.4171	852.2887	222.24379	1194.6046	1088.6481	202.55562	-1428.3234	1082.6129	240.85919	-1432.4961	-1171.886	1686.9327	-1581.822	-1170.6102	1647.954	-1581.6471	-1271.0852	1699.1206	1097.9141	-1271.848	1660.1499	1099.2189	952.57715	1705.6057	1186.579	972.41162	1733.7527	1168.2667	1026.5585	1669.302	-1551.6227	1028.0768	1630.3342	-1552.0892	-324.46756	143.28885	480.52155	-321.216	182.14685	479.82611
726	6.0416667	-1038.3165	214.52992	-1644.2488	-1109.3688	203.4715	-1599.5088	-1063.5598	173.10326	-1625.7705	-1054.0449	262.03052	-1635.0088	-1353.0903	235.04256	1003.9239	-1281.3385	227.13339	1052.33	-1323.1056	194.11571	1020.8083	-1284.7467	287.81958	1052.8408	813.79083	187.70206	1209.4697	892.36432	178.4023	1179.2223	844.58167	145.17737	1198.3547	860.61749	292.95499	1166.9602	1115.7791	209.73013	-1401.736	1056.1852	193.97719	-1460.1586	1095.0144	162.27577	-1423.8661	1069.8798	238.53174	-1425.8885	-1204.5048	1686.0046	-1563.2001	-1129.1045	1688.2137	-1606.0897	-1173.1227	1724.3948	-1581.9872	-1133.5441	1581.047	-1603.5216	-1239.6837	1699.1949	1119.2511	-1309.5212	1698.9155	1071.6909	-1270.3453	1736.1423	1096.6642	-1244.6088	1594.1711	1106.3407	988.84021	1664.269	1162.2804	957.35785	1700.3024	1183.649	922.05487	1662.0713	1214.7017	939.80127	1659.3093	1159.8658	999.19543	1668.5419	-1579.5153	1058.8856	1670.1582	-1518.6464	1025.0541	1708.0063	-1551.1569	1059.2865	1672.1914	-1585.6509	-287.20752	140.22781	479.89746	-371.47208	147.22229	481.25793	-327.58163	105.78976	481.19684	-324.00061	145.05563	512.4129	-324.7449	141.3896	434.28601																																														-1068.8124	209.78358	-1625.046	-1074.3397	248.38237	-1624.2838	-1321.8167	231.59528	1025.0219	-1320.4849	270.32852	1029.3763	848.29663	183.61803	1196.1864	852.04242	222.37613	1194.0002	1088.6963	202.57114	-1428.2863	1082.6902	240.87611	-1432.4882	-1171.8916	1686.96	-1581.7512	-1170.61	1647.9819	-1581.5056	-1271.0376	1699.0693	1097.8987	-1271.7655	1660.0978	1099.1964	952.80212	1705.5165	1186.7412	972.74725	1733.6985	1168.6039	1026.5624	1669.283	-1551.6078	1028.0801	1630.3151	-1552.0614	-324.47751	143.32144	480.49921	-321.26352	182.18207	479.77686
